<?xml version="1.0" encoding="utf-8" ?>
<svg xmlns="http://www.w3.org/2000/svg" xmlns:xlink="http://www.w3.org/1999/xlink" width="780" height="228">
	<path fill="#FEFEFE" d="M604.015 153.085C604.442 152.69 604.709 152.254 604.782 151.671C605.353 147.12 604.756 139.075 604.753 134.141L604.765 92.9261C604.776 86.136 603.422 73.3151 606.319 67.6921C607.39 65.6136 609.053 64.1206 611.301 63.4334C613.966 62.6191 617.72 62.9674 620.176 64.2919C622.127 65.3435 623.402 66.9921 624.032 69.1022C625.264 73.2295 626.121 101.195 624.241 104.567C624.223 104.6 624.204 104.633 624.185 104.666C628.244 102.287 630.665 98.2619 635.808 95.7213C642.69 92.3213 652.637 92.1206 659.796 94.562Q660.342 94.7427 660.879 94.9505Q661.416 95.1583 661.941 95.3927Q662.467 95.6271 662.98 95.8876Q663.493 96.148 663.993 96.4338Q664.492 96.7197 664.977 97.0301Q665.461 97.3406 665.93 97.6749Q666.398 98.0093 666.849 98.3667Q667.3 98.724 667.732 99.1035Q668.165 99.4831 668.578 99.8838Q668.991 100.284 669.383 100.705Q669.775 101.126 670.146 101.566Q670.517 102.006 670.865 102.464Q671.213 102.922 671.538 103.397Q671.863 103.872 672.163 104.362Q672.464 104.853 672.74 105.358Q673.015 105.863 673.265 106.381C675.295 110.567 677.447 120.405 675.918 124.858L676.04 124.834C679.696 124.109 683.362 122.244 686.882 120.985C695.922 117.752 705.695 119.04 713.698 124.32C720.534 128.83 725.102 135.698 726.709 143.723C728.237 151.352 726.41 159.607 722.105 166.063C717.577 172.855 710.257 177.441 702.281 179.004C693.977 180.631 684.847 178.348 676.569 177.374C671.398 176.764 666.117 176.427 660.991 175.55C647.817 174.727 634.66 172.092 621.48 171.657C620.571 172.692 618.772 173.492 617.468 173.864C611.754 175.495 609.568 171.949 605.496 169.724C605.555 169.574 605.608 169.422 605.645 169.264C605.921 168.092 605.254 165.808 605.144 164.539C604.861 161.299 605.389 157.066 604.62 154.001C604.561 153.765 604.163 153.309 604.015 153.085ZM655.651 132.811C657.102 129.972 655.681 119.882 654.654 116.698C653.704 113.755 652.002 110.794 649.148 109.348C645.674 107.588 640.11 107.973 636.52 109.177C632.541 110.511 629.633 113.401 627.798 117.13C623.923 125.005 626.381 141.309 624.399 144.685C624.433 144.686 624.467 144.687 624.501 144.688C626.24 144.722 654.46 133.93 655.651 132.811Z"/>
	<defs>
		<linearGradient id="gradient_0" gradientUnits="userSpaceOnUse" x1="707.33093" y1="121.80515" x2="688.12616" y2="182.82529">
			<stop offset="0" stop-color="#CA4E87"/>
			<stop offset="1" stop-color="#BE31C3"/>
		</linearGradient>
	</defs>
	<path fill="url(#gradient_0)" d="M675.918 124.858L676.04 124.834C679.696 124.109 683.362 122.244 686.882 120.985C695.922 117.752 705.695 119.04 713.698 124.32C720.534 128.83 725.102 135.698 726.709 143.723C728.237 151.352 726.41 159.607 722.105 166.063C717.577 172.855 710.257 177.441 702.281 179.004C693.977 180.631 684.847 178.348 676.569 177.374C671.398 176.764 666.117 176.427 660.991 175.55C662.357 174.612 664.556 174.994 666.184 174.736L666.376 174.031C667.64 173.982 668.792 173.845 669.981 173.39C672.197 172.543 674.132 170.805 675.062 168.603C675.887 166.651 676.047 164.049 676.183 161.931C676.479 157.312 676.973 127.506 675.918 124.858Z"/>
	<defs>
		<linearGradient id="gradient_1" gradientUnits="userSpaceOnUse" x1="653.10114" y1="133.29527" x2="638.29126" y2="175.79904">
			<stop offset="0" stop-color="#C541A3"/>
			<stop offset="1" stop-color="#BE2EC9"/>
		</linearGradient>
	</defs>
	<path fill="url(#gradient_1)" d="M624.399 144.685C624.433 144.686 624.467 144.687 624.501 144.688C626.24 144.722 654.46 133.93 655.651 132.811C656.55 134.721 656.246 137.452 656.25 139.539C656.261 146.315 654.998 162.457 657.039 168.088C657.909 170.487 659.754 172.583 662.196 173.443C663.531 173.914 664.972 174.002 666.376 174.031L666.184 174.736C664.556 174.994 662.357 174.612 660.991 175.55C647.817 174.727 634.66 172.092 621.48 171.657C622.822 170.823 623.594 169.101 624.041 167.634C625.062 164.278 626.011 147.705 624.399 144.685Z"/>
	<path fill="#FEFEFE" d="M313.082 63.3754C315.003 63.0365 317.241 62.8871 319.157 63.2843C321.736 63.8189 323.374 65.1908 324.762 67.3662C326.042 69.3733 326.144 72.9882 326.274 75.3665C326.584 80.9958 326.372 86.7233 326.368 92.3623L326.358 123.355L326.391 148.799C326.396 154.618 327.02 161.466 325.668 167.131C325.124 169.411 323.462 171.563 321.46 172.757C319.226 174.089 316.436 174.429 313.924 173.787C305.786 171.708 308.848 165.338 306.426 161.555C306.39 161.5 306.353 161.447 306.316 161.392C306.292 161.449 306.269 161.506 306.245 161.563C304.407 165.756 296.251 170.621 292.144 172.14C282.884 175.567 273.57 173.966 264.855 169.925C263.483 168.244 260.783 166.644 259.124 165.028C253.462 159.513 250.407 152.019 248.775 144.405C246.174 132.27 247.25 117.401 254.148 106.777C258.622 99.8885 265.323 95.4057 273.364 93.7007C281.819 91.908 291.326 92.9478 298.64 97.7215C300.822 99.1456 305.852 102.49 306.379 105.018C306.421 104.919 306.463 104.819 306.498 104.718L306.558 104.54C307.344 102.259 307.066 99.2819 307.056 96.8793C307.027 89.9955 305.859 75.7453 307.724 69.7011C308.666 66.6461 310.289 64.8485 313.082 63.3754ZM288.214 158.777C292.656 158.546 296.643 156.529 299.63 153.232C304.898 147.417 306.105 138.921 305.693 131.349C305.312 124.333 303.332 117.375 297.938 112.518C294.333 109.272 290.243 107.952 285.44 108.221Q285.033 108.242 284.629 108.289C279.698 109.089 275.854 111.317 272.91 115.413C267.951 122.311 267.204 132.605 268.576 140.786C269.554 146.623 272.181 152.367 277.13 155.87C280.209 158.05 284.442 159.278 288.214 158.777Z"/>
	<path fill="#FEFEFE" d="M120.913 139.018C120.251 125.393 120.723 111.572 120.712 97.9227C120.706 90.3559 120.031 80.0816 120.843 72.8186Q120.936 71.9612 121.129 71.1206Q121.321 70.2799 121.611 69.4674Q121.9 68.6549 122.282 67.8817Q122.664 67.1084 123.134 66.3849C124.282 64.6523 126.295 63.6496 128.293 63.2599C131.071 62.7183 134.359 63.0643 136.734 64.69C138.645 65.9973 140.049 68.1531 140.445 70.4302C141.48 76.3844 141.055 82.805 141.057 88.8377L141.061 116.816L141.053 146.189C141.05 151.928 141.359 157.901 140.74 163.604C140.495 165.864 139.707 168.164 138.372 170.024C136.493 172.642 134.201 173.43 131.133 173.933C129.388 174.006 127.382 174.036 125.663 173.704C122.875 173.166 120.323 171.556 118.384 169.513C112.008 162.795 107.053 153.489 102.027 145.699C91.8516 129.928 81.9142 113.941 71.3762 98.4129C72.3426 107.362 71.6325 118.998 71.6363 128.157C71.641 139.19 72.3145 151.134 71.489 162.08C71.3164 164.37 70.9933 166.898 69.9461 168.969C68.8659 171.105 67.0549 172.687 64.7772 173.432C62.179 174.281 58.9306 174.299 56.4707 173.022C54.2885 171.889 52.6245 169.826 51.9025 167.481C50.0214 161.373 50.9813 150.228 50.9887 143.541L51.0198 113.003L51.0048 89.1491C50.9991 84.796 50.7907 80.3102 51.0727 75.9703C51.2232 73.6546 51.6997 71.2334 52.8085 69.1748C54.4426 66.1408 57.1795 64.2829 60.4397 63.3129C62.4727 63.092 64.8802 62.9102 66.8811 63.3657C68.852 63.8143 71.1004 64.844 72.4853 66.3523C77.3225 71.6206 84.8324 84.3555 89.1062 90.8046C99.7324 106.839 110.695 122.723 120.913 139.018Z"/>
	<path fill="#FEFEFE" d="M196.522 91.9161C201.393 91.8136 206.404 92.0879 211.199 92.987C217.628 94.1927 223.873 96.8301 227.656 102.424C236.041 114.826 230.977 134.815 232.341 148.864C232.854 154.146 236.624 163.023 235.608 167.567C235.162 169.565 233.161 171.618 231.466 172.649C229.495 173.848 227.074 174.427 224.804 173.846C219.929 172.598 216.296 167.108 213.848 163.01C209.056 166.619 203.762 169.931 198.084 171.947C190.043 174.802 179.286 175.042 171.554 171.312C165.022 168.16 161.739 163.212 159.421 156.582C158.504 151.536 158.875 145.969 161.332 141.407C163.447 137.482 166.848 134.48 170.807 132.489C177.231 129.26 185.193 128.352 192.189 126.874Q202.553 124.764 212.718 121.843C211.808 117.595 211.692 112.06 208.223 108.991C204.796 105.959 199.428 105.961 195.106 106.254C181.727 107.159 183.267 112.211 176.426 119.936C175.13 121.399 173.405 122.269 171.443 122.369C169.094 122.489 166.704 121.546 164.986 119.958C163.27 118.372 162.463 116.386 162.387 114.07C162.242 109.694 165.004 104.626 167.94 101.506C174.911 94.0996 186.857 92.21 196.522 91.9161ZM183.314 158.402C186.847 160.887 191.244 161.299 195.425 160.591C200.456 159.739 205.933 156.991 208.916 152.734C212.39 147.776 212.114 140.883 212.335 135.08C212.15 134.765 212.109 134.554 211.758 134.427C203.49 137.05 183.641 138.868 179.692 146.553C178.764 148.358 178.599 150.334 179.224 152.264C179.984 154.608 181.423 156.815 183.314 158.402Z"/>
	<path fill="#FEFEFE" d="M374.638 92.3033C377.693 91.9325 380.935 91.8394 384.011 91.9698C393.846 92.3871 403.228 95.9552 409.963 103.322C415.564 109.45 419.218 118.423 418.815 126.78C418.669 129.792 417.862 132.778 415.537 134.844C413.339 136.799 409.909 137.403 407.081 137.795C399.626 138.827 391.677 138.338 384.143 138.322C376.947 138.307 369.697 138.565 362.514 138.172C364.501 141.086 363.527 147.122 367.798 152.629C370.97 156.72 374.984 159.138 380.145 159.749C391.993 161.152 399.128 152.875 407.585 146.266C410.118 145.909 412.79 145.948 415.054 147.293C416.26 148.009 417.105 149.093 417.436 150.464C418.144 153.397 416.862 156.712 415.35 159.184C411.036 166.234 402.736 171 394.81 172.874C383.368 175.578 369.361 174.201 359.258 167.96C351.132 162.941 345.98 154.434 343.824 145.274C340.956 133.09 342.236 119.002 348.925 108.232C355.06 98.3548 363.8 94.8259 374.638 92.3033ZM362.513 126.01Q372.59 125.867 382.668 125.92L398.742 125.845C399.62 123.423 397.744 118.08 396.676 115.812C394.806 111.841 391.662 108.613 387.472 107.137C384.519 106.098 381.533 106.06 378.453 106.387C374.381 107.011 370.561 108.699 368.066 112.09C364.993 116.265 364.234 123.794 362.513 126.01Z"/>
	<path fill="#FEFEFE" d="M463.654 92.3035C466.661 91.943 469.844 91.8433 472.87 91.9619C482.702 92.3472 492.114 95.8928 498.872 103.233C504.486 109.331 508.198 118.424 507.819 126.777C507.683 129.774 506.886 132.764 504.576 134.827C502.374 136.793 498.848 137.406 496.009 137.798C488.46 138.841 480.399 138.338 472.771 138.322C465.734 138.307 458.639 138.577 451.616 138.171C452.925 139.821 453.167 147.627 456.235 151.88C459.234 156.038 463.125 158.829 468.247 159.633C480.916 161.623 487.591 152.852 496.7 146.23C498.972 145.954 501.597 145.839 503.622 147.081C505.071 147.969 506.151 149.668 506.519 151.323C507.117 154.021 505.584 157.11 504.213 159.332C499.869 166.366 491.766 171.016 483.825 172.867C472.435 175.521 458.398 174.273 448.361 167.989C440.112 162.824 434.892 154.393 432.747 145.011C430.16 133.695 431.079 119.036 437.398 109.001C443.903 98.6709 452.211 94.9292 463.654 92.3035ZM451.344 125.978L471.79 125.92C477.131 125.899 482.48 125.932 487.821 125.84C488.644 123.674 486.771 118.143 485.807 116.02C484 112.039 480.83 108.78 476.699 107.237C473.73 106.128 470.59 106.001 467.466 106.387C463.421 106.988 459.39 108.83 456.912 112.191C454.208 115.861 453.355 123.847 451.344 125.978Z"/>
	<path fill="#FEFEFE" d="M568.814 153.372C568.943 153.166 569.048 152.949 569.089 152.708C571.486 138.674 533.654 141.44 523.563 125.726C520.896 121.574 520.381 116.48 521.417 111.72C522.664 105.995 526.186 101.349 531.102 98.2327C540.712 92.1405 553.975 91.7977 564.778 94.2404C571.459 95.7509 579.215 99.1084 582.951 105.103C584.315 107.291 585.254 110.06 584.671 112.632C584.713 112.759 584.729 112.797 584.754 112.941C584.926 113.939 584.106 115.419 583.504 116.199C582.123 117.989 579.759 119.422 577.508 119.71C570.73 120.578 566.658 112.763 562.009 109.193C558.447 106.458 554.083 105.514 549.662 106.13C546.558 106.562 542.647 108.061 540.712 110.654C539.789 111.89 539.473 113.367 539.707 114.876C540.853 122.282 561.095 125.088 567.657 127.178C572.458 128.706 577.321 130.721 581.385 133.748C585.265 136.638 587.991 140.467 588.692 145.319C589.343 149.825 588.504 156.445 585.688 160.176C585.555 162.166 582.473 165.02 580.978 166.37C580.68 166.639 580.342 166.856 579.995 167.055C571.776 173.436 560.616 174.218 550.603 174.048C546.709 176.578 540.055 179.09 535.452 179.648C533.837 178.602 532.03 178.259 530.512 176.9C527.774 174.451 528.045 170.802 527.869 167.426C527.764 166.15 524.542 163.335 523.619 162.186C521.062 159.004 519.634 155.659 520.124 151.503C520.374 149.379 521.359 147.743 523.027 146.425C524.708 145.098 526.763 144.225 528.934 144.486C533.81 145.073 536.225 150.042 538.946 153.479C542.365 157.798 546.536 160.231 552.036 160.854C556.779 161.391 562.238 160.682 566.053 157.589C567.398 156.499 568.624 155.156 568.814 153.372Z"/>
	<path fill="#BD28D3" d="M527.869 167.426C530.177 168.156 532.288 169.423 534.496 170.406C539.865 172.794 544.789 173.623 550.603 174.048C546.709 176.578 540.055 179.09 535.452 179.648C533.837 178.602 532.03 178.259 530.512 176.9C527.774 174.451 528.045 170.802 527.869 167.426Z"/>
	<path fill="#BD28D3" d="M604.015 153.085C604.163 153.309 604.561 153.765 604.62 154.001C605.389 157.066 604.861 161.299 605.144 164.539C605.254 165.808 605.921 168.092 605.645 169.264C605.608 169.422 605.555 169.574 605.496 169.724C597.149 169.461 588.319 167.985 579.995 167.055C580.342 166.856 580.68 166.639 580.978 166.37C582.473 165.02 585.555 162.166 585.688 160.176C589.456 159.337 600.519 154.947 604.015 153.085Z"/>
</svg>
